<?xml version="1.0" encoding="UTF-8"?>
<svg width="512pt" height="512pt" version="1.1" viewBox="0 0 512 512" xmlns="http://www.w3.org/2000/svg">
 <path d="m463.67 251.15v-101.57c-0.039063-32.867-13.113-64.383-36.355-87.625s-54.754-36.316-87.625-36.352h-167.38c-32.871 0.035157-64.383 13.109-87.625 36.352s-36.316 54.758-36.355 87.625v101.57c0.039063 30.281 11.145 59.504 31.223 82.172 20.078 22.668 47.75 37.219 77.809 40.91l-40.578 98.012c-1.7734 4.2773-0.44922 9.2148 3.2188 12.035 3.6719 2.8242 8.7812 2.8281 12.461 0.019531l142.74-109.17h64.48c32.871-0.039062 64.383-13.113 87.625-36.355 23.242-23.242 36.316-54.754 36.355-87.625zm-191.93 103.5c-2.2461 0-4.4336 0.73828-6.2188 2.1055l-115.25 88.137 31.5-76.086c1.3086-3.1602 0.95312-6.7656-0.94531-9.6094-1.9023-2.8398-5.0938-4.5469-8.5156-4.5469-27.441-0.03125-53.746-10.945-73.152-30.352-19.402-19.402-30.316-45.707-30.348-73.148v-101.57c0.03125-27.438 10.945-53.746 30.348-73.148 19.406-19.402 45.711-30.32 73.152-30.352h167.38c27.441 0.03125 53.746 10.949 73.152 30.352 19.402 19.402 30.316 45.711 30.348 73.148v101.57c-0.03125 27.441-10.945 53.746-30.348 73.148-19.406 19.406-45.711 30.32-73.152 30.352zm4.543-184.76v134.93c0 1.7617-1.4297 3.1914-3.1914 3.1914h-34.18c-1.7617 0-3.1914-1.4297-3.1914-3.1914v-134.93c0-1.7617 1.4297-3.1914 3.1914-3.1914h34.184-0.003906c1.7617 0 3.1914 1.4297 3.1914 3.1914zm0-73.969v34.184-0.003906c0 0.84766-0.33594 1.6602-0.93359 2.2578-0.59766 0.59766-1.4102 0.93359-2.2578 0.93359h-34.18c-0.84766 0-1.6602-0.33594-2.2578-0.93359-0.59766-0.59766-0.93359-1.4102-0.93359-2.2578v-34.184c0-0.84375 0.33594-1.6562 0.93359-2.2539s1.4102-0.93359 2.2578-0.93359h34.184-0.003906c0.84766 0 1.6602 0.33594 2.2578 0.93359s0.93359 1.4102 0.93359 2.2539z" fill="#fff"/>
</svg>
