<?xml version="1.0" encoding="UTF-8"?>
<svg width="512pt" height="512pt" version="1.1" viewBox="0 0 512 512" xmlns="http://www.w3.org/2000/svg">
 <g fill="#fff">
  <path d="m145.98 276.52v10.23h162.19v-10.23z" fill-rule="evenodd"/>
  <path d="m145.98 316.52v10.23h139.43c3.4453-3.6836 7.1445-7.1055 11.109-10.23z" fill-rule="evenodd"/>
  <path d="m68.355 31.727v419.84h208.58c-2.3359-3.2852-4.5312-6.6758-6.4609-10.238h-191.88v-399.36h296.96v254.95c3.4766 0.63672 6.8984 1.4297 10.238 2.4219v-267.61z" fill-rule="evenodd"/>
  <path d="m145.98 356.51v10.23h116.6c1.0156-3.4883 2.1719-6.9102 3.5508-10.23z" fill-rule="evenodd"/>
  <path d="m357.7 308.39c-47.402 0-85.941 38.547-85.941 85.949 0 47.402 38.535 85.941 85.941 85.941 47.402 0 85.941-38.535 85.941-85.941 0-47.402-38.535-85.949-85.941-85.949zm0 10.238c41.871 0 75.699 33.84 75.699 75.711 0 41.871-33.832 75.699-75.699 75.699-41.871 0-75.699-33.832-75.699-75.699 0-41.871 33.832-75.711 75.699-75.711z"/>
  <path d="m378.93 372.07-7.2305 7.25 15.051 15.012-15.051 15.02 7.2305 7.25 22.309-22.258z"/>
  <path d="m362.12 360.3-18.68 65.238 9.8516 2.8203 18.672-65.25z"/>
  <path d="m336.47 372.07-22.309 22.27 22.309 22.258 7.2383-7.25-15.051-15.02 15.051-15.012z"/>
  <path d="m227.07 116.38-58.031 29.031v72.5l58.031 29.031 58.031-29.031v-72.5zm0 11.449 47.801 23.91v59.84l-47.801 23.91-47.801-23.91v-59.84zm0 15.02-18.352 9.1797v19.559l18.352 9.1797c6.1133-3.0664 12.234-6.1211 18.352-9.1797v-19.559zm0 11.449 8.1094 4.0586v6.8984l-8.1094 4.0586-8.1094-4.0586v-6.8984zm-31.582 27.359v23.02l31.582 15.789 31.582-15.789v-23.02h-10.238v16.691l-21.34 10.672-21.34-10.672v-16.691z"/>
 </g>
</svg>
