<?xml version="1.0" encoding="UTF-8"?>
<svg width="512pt" height="512pt" version="1.1" viewBox="0 0 512 512" xmlns="http://www.w3.org/2000/svg">
 <path d="m247.55 5.1172c-45.078 0-81.742 36.617-81.742 81.648 0 45.035 36.664 81.641 81.742 81.641 45.078 0 81.742-36.605 81.742-81.641 0-45.031-36.664-81.648-81.742-81.648zm0 10.453c39.438 0 71.285 31.816 71.285 71.195s-31.852 71.188-71.285 71.188c-39.438 0-71.285-31.809-71.285-71.188 0-39.375 31.852-71.195 71.285-71.195zm-51.102 152.54c-1.2148-0.015625-2.3984 0.39062-3.3438 1.1523l-21.684 16.59h-4.1172c-19.047 0-36.336 7.5898-48.91 19.91v-0.003906c-0.5625 0.44922-1.0273 1.0117-1.3633 1.6484-0.011718 0.023437-0.027344 0.050781-0.039062 0.078125-0.0625 0.10547-0.12109 0.21484-0.17188 0.32812-0.023438 0.050781-0.042969 0.10156-0.058594 0.15625l-30.664 71.984c-0.30469 0.67188-0.46094 1.4023-0.46094 2.1367-6.7266 1.7617-12.965 5.168-17.938 9.793-7.457 6.9297-12.098 17.16-9.582 28.027 7.957 34.371 15.973 81.957 24.051 118.14-7.9766 2.2383-14.152 8.7891-14.152 17.113 0 10.371 9.5469 17.965 20.246 17.965h198.88l6.1289 6.125 10.238 10.223-0.003906-0.003906c2.043 2.0391 5.3438 2.0391 7.3828 0l12.027-12.016c5.5039 3.1289 11.352 5.5156 17.461 7.1758v17.035l0.003906 0.003906c0.007813 2.8789 2.3398 5.2148 5.2227 5.2188h28.949c2.8867 0 5.2305-2.3359 5.2344-5.2188v-17c6.1055-1.6797 11.938-4.0977 17.43-7.2422l12.059 12.051c2.0391 2.0352 5.3438 2.0352 7.3828 0l10.23-10.223 10.238-10.223h0.003906c0.98438-0.98047 1.5391-2.3125 1.5391-3.7031s-0.55469-2.7227-1.5391-3.7031l-12.027-12.016c3.125-5.4961 5.5312-11.324 7.1836-17.426h17.059c2.8828 0.003906 5.2266-2.332 5.2305-5.2188v-28.938c-0.003907-2.8867-2.3477-5.2227-5.2305-5.2188h-17.016c-1.6758-6.1055-4.1094-11.918-7.2539-17.406l12.055-12.031c2.0391-2.043 2.0391-5.3516 0-7.3906l-6.3164-6.3047c2.0078-9.9922 4.2812-21.473 6.1992-29.762 2.5156-10.863-2.125-21.094-9.582-28.027-4.9727-4.625-11.215-8.0156-17.941-9.793v-0.003906c0-0.73438-0.15625-1.4648-0.46094-2.1367l-30.727-72.129h0.003907c-0.027344-0.058593-0.050782-0.11719-0.078126-0.17578-0.007812-0.019531-0.011718-0.039062-0.019531-0.058593-0.35156-0.75391-0.875-1.4141-1.5312-1.9219-12.57-12.297-29.832-19.863-48.855-19.863h-4.1172l-21.684-16.59h-0.003906c-0.98828-0.72266-2.2031-1.0703-3.4258-0.98828-0.49609 0.039063-0.98438 0.14844-1.4492 0.32812l-49.57 17.066-49.562-17.066h0.003907c-0.49609-0.1875-1.0117-0.29688-1.5391-0.32812zm0.77734 11.078 38.43 13.234-23.887 15.375-29.605-17.098zm100.64 0 15.062 11.523-29.598 17.098-23.895-15.391zm-130.56 17.035h3.5117l38.48 22.23h0.003907c1.6953 0.98047 3.8008 0.92969 5.4492-0.13672l9.6992-6.2383 2.3516 13.926c-3.3164 18.223-6.7812 36.445-10.195 54.691h-119.49l28.895-67.828c10.664-10.305 25.168-16.637 41.301-16.637zm156.96 0h3.5234c16.137 0 30.641 6.3359 41.305 16.648l28.891 67.816h-119.5c-3.4141-18.238-6.8828-36.453-10.199-54.672l2.3516-13.941 9.7031 6.2383c1.6445 1.0625 3.7461 1.1133 5.4414 0.13672zm-76.723 0.98828 13.766 8.8555c-0.26172 0.51562-0.4375 1.0742-0.51953 1.6484l-2.2266 13.168h-22.043l-2.2266-13.168c-0.078125-0.57422-0.25-1.1328-0.51172-1.6484zm-11.09 34.074h22.176c3.0195 16.5 6.1367 32.957 9.2188 49.414h-40.613c3.082-16.461 6.1992-32.914 9.2188-49.414zm-140.48 59.859h303.14c7.6367 0 15.762 3.3242 21.18 8.3633 5.418 5.0352 8.0898 11.191 6.5117 18.008-1.5508 6.6992-3.2539 15.094-4.8945 23.254l-5.2734-5.2656v-0.003906c-2.0391-2.0352-5.3438-2.0352-7.3828 0l-12.035 12.016c-5.5039-3.1289-11.344-5.5312-17.453-7.1758v-17.039h-0.003907c-0.003906-2.8828-2.3438-5.2188-5.2305-5.2148h-28.949c-2.8828 0-5.2188 2.3359-5.2227 5.2148v16.992c-6.1094 1.6797-11.941 4.0977-17.438 7.2422l-12.055-12.031c-2.0391-2.0352-5.3438-2.0352-7.3828 0l-20.477 20.445h-0.003906c-2.0391 2.0391-2.0391 5.3477 0 7.3906l12.031 12.016c-3.125 5.4961-5.5312 11.324-7.1836 17.43h-17.062 0.003906c-2.8828 0.003906-5.2188 2.3359-5.2227 5.2188v28.922c0.003906 2.8789 2.3398 5.2148 5.2227 5.2148h17.023c0.46484 1.6953 0.99609 3.3594 1.5742 5.0195h-196.71c-8.0703-35.824-16.199-84.246-24.395-119.65-1.582-6.8164 1.0938-12.973 6.5117-18.008 5.418-5.0352 13.547-8.3633 21.18-8.3633zm254.84 37.383h18.492v15.652h0.003906c-0.003906 2.4766 1.7344 4.6133 4.1602 5.1172 7.7969 1.6484 15.219 4.6758 21.906 9.0039h-0.003906c2.0625 1.3438 4.7773 1.0703 6.5273-0.65625l11.043-11.027 6.543 6.5352 6.5352 6.5195-11.066 11.043c-1.7461 1.7461-2.0273 4.4805-0.67578 6.5508 4.3516 6.668 7.4375 14.059 9.0977 21.844 0.51563 2.4102 2.6445 4.1289 5.1094 4.1289h15.613v18.469h-15.672 0.003906c-2.4766 0.003906-4.6133 1.7422-5.1172 4.1641-1.6328 7.7852-4.6836 15.191-9.0117 21.875-1.3477 2.0742-1.0625 4.8047 0.6875 6.5508l11.035 11.012-6.5352 6.5195-6.543 6.5352-11.066-11.062c-1.7539-1.7383-4.4844-2.0117-6.5508-0.65625-6.6719 4.3438-14.09 7.4219-21.883 9.0859-2.4141 0.51563-4.1367 2.6484-4.1328 5.1172v15.59h-18.492v-15.637h-0.003906c0-2.4766-1.7344-4.6133-4.1562-5.1211-7.7969-1.6484-15.227-4.6914-21.914-9.0039-2.0625-1.3438-4.7812-1.0703-6.5312 0.66016l-11.039 11.027-13.07-13.055 11.059-11.047-0.003906 0.003907c1.75-1.7461 2.0391-4.4805 0.69141-6.5508-4.3516-6.668-7.4375-14.074-9.0977-21.852-0.51562-2.4141-2.6484-4.1367-5.1172-4.1328h-15.609v-18.469h15.672c2.4727 0 4.6055-1.7305 5.1172-4.1484 1.6328-7.7852 4.6836-15.191 9.0117-21.875h-0.003907c1.3477-2.0742 1.0586-4.8047-0.69141-6.5508l-11.035-11.012 6.5352-6.5195 6.543-6.5352 11.07 11.062c1.7539 1.7344 4.4805 2.0117 6.543 0.66016 6.6719-4.3438 14.09-7.4219 21.883-9.0859v-0.003906c2.4141-0.50781 4.1406-2.6367 4.1445-5.1016zm9.2422 32.922c-28.137 0-51.062 22.898-51.062 51.012s22.926 51.008 51.062 51.008 51.062-22.895 51.062-51.008-22.926-51.012-51.062-51.012zm0 10.453c22.496 0 40.613 18.098 40.613 40.555 0 9.3164-3.1211 17.867-8.3711 24.699h-64.484c-5.2461-6.832-8.3672-15.391-8.3672-24.699 0-22.457 18.113-40.555 40.609-40.555zm-253.63 10.668 0.003906-0.003906c-1.5703 0.019531-3.0469 0.74609-4.0234 1.9727-0.97656 1.2305-1.3477 2.832-1.0156 4.3633 2.1133 10.484 4.2305 20.539 6.3555 29.723v0.003906c0.019532 0.058594 0.039063 0.11719 0.058594 0.17188 0.023438 0.11328 0.050781 0.22266 0.078125 0.33203 0 0.003906 0.003906 0.003906 0.003906 0.007813 0.77344 2.3086 3.0352 3.7734 5.457 3.5391h47.305c2.8398-0.0625 5.1094-2.3828 5.1094-5.2227 0-2.8438-2.2695-5.1641-5.1094-5.2266h-43.637c-1.7891-7.9336-3.5859-16.477-5.3828-25.387h0.003906c-0.46484-2.5-2.6641-4.3047-5.207-4.2734zm-18.188 65.035h205.75c0.34766 0.65625 0.70312 1.3164 1.0703 1.9414l-12.055 12.031h0.003907c-0.30469 0.29297-0.57422 0.625-0.80078 0.98438h-193.96c-5.9414 0-9.793-3.7539-9.793-7.5078 0-3.7539 3.8477-7.5078 9.793-7.5078zm251.52 0h40.59c-5.9648 3.4219-12.891 5.3984-20.293 5.3984-7.4062 0-14.328-1.9766-20.293-5.3984z" fill="#fff"/>
</svg>
