<?xml version="1.0" encoding="UTF-8"?>
<svg width="512pt" height="512pt" version="1.1" viewBox="0 0 512 512" xmlns="http://www.w3.org/2000/svg">
 <path d="m373.18 165.14-9.7031-9.7031c-2.0625-2.043-4.8594-3.1797-7.7617-3.1484-3.3711 0.039063-6.5898 1.4062-8.9609 3.8008l-50.984 50.988c-1.0117-0.46484-2.1094-0.70312-3.2227-0.70312h-137.79c-5.0625 0.003906-9.918 2.0156-13.496 5.5977-3.5781 3.5781-5.5938 8.4336-5.5977 13.492v115.15c0.003906 5.0625 2.0195 9.918 5.5977 13.496s8.4336 5.5938 13.496 5.5977h158.47c5.0625-0.003907 9.9141-2.0195 13.496-5.5977 3.5781-3.5781 5.5898-8.4336 5.5977-13.496v-113.82c0-1.3164-0.33594-2.6133-0.97656-3.7617l41.18-41.18c2.2383-2.2031 3.5859-5.1562 3.7812-8.2891 0.22266-3.1289-0.91797-6.2031-3.1289-8.4297zm-56.395 175.48c0 1.9648-1.5938 3.5547-3.5547 3.5586h-158.47c-1.9648-0.003906-3.5547-1.5938-3.5586-3.5586v-115.15c0.003906-1.9609 1.5938-3.5508 3.5586-3.5547h126.18l-41.473 41.477c-0.44141 0.44141-0.76172 0.98828-0.92969 1.5859l-8.0273 28.672c-0.35547 1.2617 0 2.6172 0.92578 3.543 0.92578 0.92578 2.2812 1.2812 3.543 0.92578l28.672-8.0312v0.003907c0.59766-0.16797 1.1445-0.48828 1.5859-0.92969l51.555-51.555z" fill="#fff"/>
</svg>
