<?xml version="1.0" encoding="UTF-8"?>
<svg width="512pt" height="512pt" version="1.1" viewBox="0 0 512 512" xmlns="http://www.w3.org/2000/svg">
 <path d="m144 416c-16.973 0-33.254-6.7422-45.254-18.746-12.004-12-18.746-28.281-18.746-45.254v-38.238c0.035156-10.734-5.3125-20.766-14.238-26.723l-26.562-17.758c-4.4219-2.9727-7.0742-7.9531-7.0742-13.281s2.6523-10.309 7.0742-13.281l26.559-17.762 0.003907 0.003907c8.9258-5.957 14.273-15.988 14.238-26.723v-38.238c0-16.973 6.7422-33.254 18.746-45.254 12-12.004 28.281-18.746 45.254-18.746 5.7148 0 11 3.0508 13.855 8 2.8594 4.9492 2.8594 11.051 0 16-2.8555 4.9492-8.1406 8-13.855 8-8.4883 0-16.625 3.3711-22.629 9.3711-6 6.0039-9.3711 14.141-9.3711 22.629v38.238c0.015625 21.406-10.676 41.402-28.48 53.281l-6.7188 4.4805 6.7188 4.4805c17.805 11.879 28.496 31.875 28.48 53.281v38.238c0 8.4883 3.3711 16.625 9.3711 22.629 6.0039 6 14.141 9.3711 22.629 9.3711 5.7148 0 11 3.0508 13.855 8 2.8594 4.9492 2.8594 11.051 0 16-2.8555 4.9492-8.1406 8-13.855 8zm288-64v-38.238c-0.035156-10.734 5.3125-20.766 14.238-26.723l26.559-17.762 0.003906 0.003906c4.4219-2.9727 7.0742-7.9531 7.0742-13.281s-2.6523-10.309-7.0742-13.281l-26.559-17.762-0.003907 0.003907c-8.9258-5.957-14.273-15.988-14.238-26.723v-38.238c0-16.973-6.7422-33.254-18.746-45.254-12-12.004-28.281-18.746-45.254-18.746-5.7148 0-11 3.0508-13.855 8-2.8594 4.9492-2.8594 11.051 0 16 2.8555 4.9492 8.1406 8 13.855 8 8.4883 0 16.625 3.3711 22.629 9.3711 6 6.0039 9.3711 14.141 9.3711 22.629v38.238c-0.015625 21.406 10.676 41.402 28.48 53.281l6.7188 4.4805-6.7188 4.4805c-17.805 11.879-28.496 31.875-28.48 53.281v38.238c0 8.4883-3.3711 16.625-9.3711 22.629-6.0039 6-14.141 9.3711-22.629 9.3711-5.7148 0-11 3.0508-13.855 8-2.8594 4.9492-2.8594 11.051 0 16 2.8555 4.9492 8.1406 8 13.855 8 16.973 0 33.254-6.7422 45.254-18.746 12.004-12 18.746-28.281 18.746-45.254zm-224 0c0-4.2422-1.6875-8.3125-4.6875-11.312s-7.0703-4.6875-11.312-4.6875h-16c-5.7148 0-11 3.0508-13.855 8-2.8594 4.9492-2.8594 11.051 0 16 2.8555 4.9492 8.1406 8 13.855 8h16c4.2422 0 8.3125-1.6875 11.312-4.6875s4.6875-7.0703 4.6875-11.312zm80 0c0-4.2422-1.6875-8.3125-4.6875-11.312s-7.0703-4.6875-11.312-4.6875h-32c-5.7148 0-11 3.0508-13.855 8-2.8594 4.9492-2.8594 11.051 0 16 2.8555 4.9492 8.1406 8 13.855 8h32c4.2422 0 8.3125-1.6875 11.312-4.6875s4.6875-7.0703 4.6875-11.312zm64 0c0-4.2422-1.6875-8.3125-4.6875-11.312s-7.0703-4.6875-11.312-4.6875h-16c-5.7148 0-11 3.0508-13.855 8-2.8594 4.9492-2.8594 11.051 0 16 2.8555 4.9492 8.1406 8 13.855 8h16c4.2422 0 8.3125-1.6875 11.312-4.6875s4.6875-7.0703 4.6875-11.312z" fill="#fff"/>
</svg>
